<svg xmlns="http://www.w3.org/2000/svg" width="34" height="31" viewBox="0 0 34 31"><defs><linearGradient id="h3dnc" x1="17.01" x2="16.99" y1="18.01" y2="12.99" gradientUnits="userSpaceOnUse"><stop offset="0" stop-opacity=".96"/><stop offset=".5" stop-color="#d0d0d0" stop-opacity=".96"/><stop offset="1" stop-color="#9e9e9e" stop-opacity=".96"/></linearGradient><filter id="h3dna" width="200%" height="200%" x="-50%" y="-50%"><feGaussianBlur in="SourceGraphic" result="FeGaussianBlur1170Out" stdDeviation="6.5 6.5"/></filter><mask id="h3dnb"><path fill="#fff" d="M14.136 18.006l-1.146-1.114L17 12.99l1.146 1.114 2.864 2.787-1.146 1.114L17 15.22z"/></mask><filter id="h3dnd" width="200%" height="200%" x="-50%" y="-50%"><feGaussianBlur in="SourceGraphic" result="FeGaussianBlur1177Out" stdDeviation="0 0"/></filter><mask id="h3dne"><path fill="#fff" d="M14.136 18.006l-1.146-1.114L17 12.99l1.146 1.114 2.864 2.787-1.146 1.114L17 15.22z"/></mask></defs><g><g><path fill="#fff" fill-opacity=".24" d="M0 31V0h34v31zm17-15.78l2.864 2.786 1.146-1.114-2.864-2.787L17 12.99l-4.01 3.902 1.146 1.114z" filter="url(#h3dna)" mask="url(&quot;#h3dnb&quot;)"/><path fill="#bb9c66" d="M14.136 18.006l-1.146-1.114L17 12.99l1.146 1.114 2.864 2.787-1.146 1.114L17 15.22z"/><path fill="url(#h3dnc)" d="M14.136 18.006l-1.146-1.114L17 12.99l1.146 1.114 2.864 2.787-1.146 1.114L17 15.22z"/><path fill="#fff" fill-opacity=".24" d="M0 31V0h34v31zm17-15.78l2.864 2.786 1.146-1.114-2.864-2.787L17 12.99l-4.01 3.902 1.146 1.114z" filter="url(#h3dna)" mask="url(&quot;#h3dnb&quot;)"/><path fill="#fff1d8" fill-opacity=".44" d="M13 19v-1.099L14.13 19zm0-7h8v5.882l-2.854-2.777L17 13.99l-4 3.892zm8 7h-1.13L21 17.902zm-4-2.78L19.858 19h-5.716zm2.864 2.786l.007-.006h-.013zm1.146-1.114l-.01-.01v.02zm-8.02 0l.01.01v-.02zm1.146 1.114l.006-.006h-.013z" filter="url(#h3dnd)" mask="url(&quot;#h3dne&quot;)"/></g></g></svg>